<svg width="28" height="28" viewBox="0 0 28 28" fill="none" xmlns="http://www.w3.org/2000/svg">
<g id="cancel_24px">
<path id="icon/navigation/cancel_24px" fill-rule="evenodd" clip-rule="evenodd" d="M14 2.33337C7.54837 2.33337 2.33337 7.54837 2.33337 14C2.33337 20.4517 7.54837 25.6667 14 25.6667C20.4517 25.6667 25.6667 20.4517 25.6667 14C25.6667 7.54837 20.4517 2.33337 14 2.33337ZM14 23.3334C8.85504 23.3334 4.66671 19.145 4.66671 14C4.66671 8.85504 8.85504 4.66671 14 4.66671C19.145 4.66671 23.3334 8.85504 23.3334 14C23.3334 19.145 19.145 23.3334 14 23.3334ZM14 12.355L18.1884 8.16671L19.8334 9.81171L15.645 14L19.8334 18.1884L18.1884 19.8334L14 15.645L9.81171 19.8334L8.16671 18.1884L12.355 14L8.16671 9.81171L9.81171 8.16671L14 12.355Z" fill="white"/>
</g>
</svg>
